<?xml version="1.0" standalone="no"?>
<!DOCTYPE svg PUBLIC "-//W3C//DTD SVG 1.1//EN" "http://www.w3.org/Graphics/SVG/1.1/DTD/svg11.dtd" >
<svg xmlns="http://www.w3.org/2000/svg">
<metadata>Generated by IcoMoon</metadata>
<defs>
<font id="isouq" horiz-adv-x="1024">
<font-face units-per-em="1024" ascent="960" descent="-64" />
<missing-glyph horiz-adv-x="1024" />
<glyph unicode="&#x20;" horiz-adv-x="512" d="" />
<glyph unicode="&#xe900;" glyph-name="cart" d="M883.2 323.2l115.2 348.8c6.4 16 0 25.6-3.2 32-12.8 16-35.2 16-41.6 16h-652.8l-16 86.4c-3.2 19.2-19.2 35.2-48 35.2h-182.4c-19.2 0-28.8-9.6-28.8-25.6v-48c0-16 9.6-22.4 28.8-22.4h153.6l118.4-502.4c-19.2-19.2-28.8-48-28.8-76.8 0-60.8 48-115.2 108.8-115.2 57.6 0 99.2 54.4 105.6 86.4h230.4c6.4-32 41.6-86.4 105.6-86.4 60.8 0 108.8 51.2 108.8 112s-35.2 112-108.8 112c-28.8 0-64-16-80-38.4h-284.8c-19.2 32-48 41.6-76.8 41.6l-3.2 22.4h435.2c32 0 38.4 6.4 44.8 22.4zM854.4 204.8c22.4 0 38.4-16 38.4-38.4s-19.2-41.6-41.6-41.6c-22.4 0-38.4 19.2-38.4 41.6s19.2 38.4 41.6 38.4zM448 163.2c0-22.4-19.2-41.6-41.6-41.6s-41.6 19.2-41.6 41.6 19.2 41.6 41.6 41.6c22.4 0 41.6-16 41.6-41.6z" />
<glyph unicode="&#xe901;" glyph-name="check" d="M371.2 134.4l-339.2 336 89.6 92.8 249.6-249.6 531.2 531.2 89.6-89.6z" />
<glyph unicode="&#xe902;" glyph-name="chevron-left" d="M201.6 444.8l515.2 515.2 102.4-102.4-409.6-412.8 403.2-406.4-102.4-102.4z" />
<glyph unicode="&#xe903;" glyph-name="chevron-right" d="M822.4 451.2l-515.2-515.2-105.6 102.4 412.8 412.8-403.2 406.4 102.4 102.4z" />
<glyph unicode="&#xe904;" glyph-name="close" d="M934.4 774.4l-96 96-326.4-326.4-326.4 326.4-96-96 326.4-326.4-326.4-326.4 96-96 326.4 326.4 326.4-326.4 96 96-326.4 326.4 326.4 326.4z" />
<glyph unicode="&#xe905;" glyph-name="dollar" d="M555.868 501.268v103.526c33.761-8.264 66.765-24.003 93.768-48.763l0.113 0.154c2.017-1.608 4.465-2.714 7.25-2.714 3.666 0 6.81 1.772 8.98 4.383l0.154-0.031 43.643 61.522-0.102 0.051c1.792 2.068 2.98 4.69 2.98 7.639 0 3.482-1.567 6.533-3.963 8.694-40.479 37.386-92.16 59.832-152.822 66.58v59.453h-0.010c0 6.523-5.284 11.807-11.807 11.807h-46.879c-6.523 0-11.807-5.284-11.807-11.807v-57.948c-101.274-10.496-161.28-75.018-161.28-150.784 0-102.021 84.019-131.277 161.28-150.036v-116.265c-49.613 8.888-90.388 34.601-118.129 63.386-0.195 0.215-0.399 0.399-0.614 0.594-0.164 0.174-0.369 0.348-0.532 0.522l-0.082-0.113c-2.038 1.659-4.526 2.796-7.363 2.796-4.465 0-8.212-2.57-10.22-6.226l-0.143 0.020-42.24-62.71 0.051-0.102c-1.802-2.068-2.99-4.69-2.99-7.66 0-3.758 1.864-6.953 4.588-9.114l-0.113-0.164c41.257-41.257 99.021-71.26 177.787-78.019v-55.706c0-6.523 5.284-11.807 11.807-11.807v0h46.879c6.523 0 11.807 5.294 11.807 11.807h0.010v55.716c110.275 11.264 165.038 75.756 165.038 159.037 0 102.758-87.020 132.782-165.038 152.279zM485.356 518.533c-30.751 9.738-51.763 21.002-51.763 42.762 0 25.498 18.76 43.5 51.763 48.005v-90.767zM555.868 285.225v100.516c33.014-10.496 56.269-22.518 56.269-47.258 0-24.013-18.012-45.752-56.269-53.258z" />
<glyph unicode="&#xe906;" glyph-name="heart" d="M704.158 832.316c-80.909 0-154.232-36.662-202.272-99.872-48.040 63.21-122.627 99.872-202.272 99.872-141.59 0-256.632-115.042-256.632-256.632 0-152.968 73.323-242.726 132.741-314.785l12.642-15.17c70.795-85.965 288.237-241.462 297.086-249.047 5.057-3.793 11.378-5.057 17.699-5.057s12.642 2.528 17.699 5.057c8.849 6.321 226.291 161.817 297.086 249.047l12.642 15.17c56.889 72.059 130.212 161.817 130.212 314.785 0 141.59-116.306 256.632-256.632 256.632v0z" />
<glyph unicode="&#xe907;" glyph-name="loop" d="M473.484 765.882c46.219 5.135 91.41 1.027 133.521-11.298 138.656-40.056 240.337-167.414 242.391-318.395h90.383c5.135 0 8.217-6.162 5.135-10.271l-137.629-186.929c-2.054-3.081-7.19-3.081-9.244 0l-136.602 185.902c-3.081 4.108 0 10.271 5.135 10.271h90.383c-2.054 99.627-62.652 183.848-148.927 220.822-32.867 13.352-68.814 20.542-106.816 18.487-52.381-3.081-99.627-22.596-138.656-53.408-20.542-16.433-50.327-12.325-66.76 9.244-15.406 20.542-10.271 48.273 9.244 64.706 46.219 38.002 104.762 63.679 168.441 70.869zM647.061 228.718c-39.029-30.812-86.275-50.327-138.656-53.408-38.002-2.054-73.95 5.135-106.816 18.487-86.275 36.975-147.9 121.196-148.927 220.822h90.383c5.135 0 8.217 6.162 5.135 10.271l-137.629 185.902c-2.054 3.081-7.19 3.081-9.244 0l-136.602-185.902c-3.081-4.108 0-10.271 5.135-10.271h90.383c2.054-150.981 103.735-278.339 242.391-318.395 42.11-12.325 86.275-16.433 133.521-11.298 63.679 7.19 121.196 32.867 169.468 70.869 19.515 15.406 23.623 44.164 9.244 64.706-17.46 20.542-47.246 24.65-67.787 8.217z" />
<glyph unicode="&#xe908;" glyph-name="mail" d="M884.216 92.038c21.13 0 37.384 6.502 53.638 19.505l-258.438 256.813c-6.502-4.876-11.378-8.127-17.879-13.003-19.505-14.629-34.133-24.381-47.137-32.508-11.378-8.127-27.632-16.254-47.137-24.381s-39.010-13.003-55.263-13.003v0 0c-17.879 0-35.759 4.876-55.263 13.003s-35.759 16.254-47.137 24.381c-11.378 8.127-27.632 19.505-47.137 32.508-4.876 3.251-11.378 8.127-17.879 13.003l-256.813-255.187c14.629-13.003 32.508-19.505 53.638-19.505h742.806zM110.527 530.895c-19.505 13.003-35.759 27.632-50.387 43.886v-390.095l225.93 225.93c-45.511 30.883-104.025 71.517-175.543 120.279zM913.473 530.895c-68.267-47.137-126.781-86.146-175.543-120.279l225.93-225.93v390.095c-14.629-16.254-30.883-30.883-50.387-43.886zM884.216 803.962h-744.432c-26.006 0-45.511-9.752-58.514-26.006-14.629-17.879-21.13-39.010-21.13-65.016 0-21.13 9.752-43.886 27.632-68.267 17.879-26.006 37.384-45.511 58.514-60.14 11.378-8.127 45.511-32.508 104.025-71.517 30.883-21.13 58.514-40.635 81.27-56.889 19.505-13.003 37.384-26.006 50.387-35.759 1.625-1.625 4.876-3.251 8.127-4.876 3.251-3.251 8.127-6.502 14.629-9.752 11.378-8.127 19.505-14.629 27.632-19.505 6.502-4.876 16.254-9.752 26.006-16.254s19.505-11.378 29.257-13.003c9.752-3.251 17.879-4.876 26.006-4.876v0 0c8.127 0 16.254 1.625 26.006 4.876s19.505 8.127 29.257 13.003c9.752 6.502 19.505 11.378 26.006 16.254s16.254 11.378 27.632 19.505c4.876 4.876 9.752 8.127 14.629 9.752 3.251 1.625 6.502 4.876 8.127 4.876 11.378 8.127 27.632 19.505 50.387 35.759 42.26 29.257 104.025 71.517 185.295 128.406 24.381 17.879 45.511 37.384 61.765 61.765s24.381 50.387 24.381 76.394c0 22.756-8.127 40.635-24.381 56.889-17.879 16.254-37.384 24.381-58.514 24.381z" />
<glyph unicode="&#xe909;" glyph-name="magnifying-glass" d="M593.92 883.2c-189.44 0-345.6-153.6-345.6-345.6 0-76.8 25.6-145.92 66.56-202.24l-232.96-232.96c-23.040-23.040-23.040-58.88 0-81.92 10.24-10.24 25.6-17.92 40.96-17.92s30.72 5.12 40.96 17.92l232.96 232.96c56.32-38.4 125.44-61.44 197.12-61.44 192 0 345.6 156.16 345.6 345.6s-153.6 345.6-345.6 345.6zM593.92 294.4c-133.12 0-243.2 110.080-243.2 243.2s110.080 243.2 243.2 243.2 243.2-110.080 243.2-243.2c2.56-133.12-107.52-243.2-243.2-243.2z" />
<glyph unicode="&#xe90a;" glyph-name="social-android" d="M847.36 545.28l-601.6 343.040c-12.8 7.68-30.72 12.8-46.080 12.8-17.92 0-33.28-5.12-48.64-12.8-30.72-17.92-48.64-51.2-48.64-84.48v-686.080c0-33.28 17.92-66.56 48.64-84.48 15.36-7.68 30.72-12.8 48.64-12.8s33.28 5.12 48.64 12.8l599.040 343.040c30.72 17.92 48.64 48.64 48.64 84.48s-17.92 66.56-48.64 84.48zM586.24 624.64l-81.92-115.2-197.12 276.48 279.040-161.28zM194.56 79.36c-5.12 0-10.24 2.56-15.36 5.12-12.8 7.68-17.92 20.48-17.92 33.28v686.080c0 12.8 7.68 25.6 17.92 33.28 5.12 2.56 10.24 5.12 15.36 5.12l273.92-381.44-273.92-381.44zM307.2 135.68l197.12 273.92 81.92-115.2-279.040-158.72zM819.2 427.52l-179.2-102.4-97.28 135.68 97.28 135.68 179.2-102.4c12.8-7.68 17.92-20.48 17.92-33.28s-7.68-25.6-17.92-33.28z" />
<glyph unicode="&#xe90b;" glyph-name="social-apple" d="M866.807 589.923c-46.709 59.284-113.179 93.418-175.158 93.418-82.639 0-117.67-39.523-175.158-39.523-59.284 0-104.196 39.523-175.158 39.523-70.063 0-144.618-42.218-192.225-115.874-66.47-102.4-55.691-295.523 52.996-459.004 38.625-58.386 89.825-124.856 157.193-125.754 60.182-0.898 77.249 38.625 158.091 38.625s97.011-39.523 156.295-38.625c67.368 0.898 122.161 73.656 160.786 132.94 27.846 42.218 37.726 63.775 59.284 110.484-156.295 59.284-181.446 279.354-26.947 363.789v0zM628.772 748.912c29.642 38.625 52.996 92.519 44.912 148.211-49.404-3.593-105.993-34.133-140.126-75.453-30.54-36.828-55.691-91.621-45.811-144.618 52.996-1.796 108.688 30.54 141.025 71.86v0z" />
<glyph unicode="&#xe90c;" glyph-name="social-facebook" d="M906.335 890.037h-788.671c-27.985 0-47.702-22.897-47.702-47.702v-785.491c0-27.985 22.897-47.702 47.702-47.702h424.229v340.273h-115.757v133.565h116.393v98.584c0 113.848 70.599 176.815 171.727 176.815 47.702 0 90.952-2.544 103.672-5.088v-118.937h-70.599c-55.334 0-65.511-25.441-65.511-65.511v-85.863h131.657l-18.445-133.565h-113.848v-343.453h224.517c27.985 0 47.702 22.897 47.702 47.702v788.671c0.636 24.805-22.261 47.702-47.066 47.702z" />
<glyph unicode="&#xe90d;" glyph-name="social-instagram" d="M512 840.342c127.712 0 142.67 0 192.144-2.301 47.173-2.301 72.485-10.355 89.744-17.258 23.011-8.054 37.969-19.56 55.227-34.517 17.258-17.258 27.613-32.216 34.517-55.227 8.054-17.258 14.957-42.571 17.258-89.744 2.301-49.474 2.301-64.431 2.301-192.144s0-142.67-2.301-192.144c-2.301-47.173-10.355-72.485-17.258-89.744-8.054-23.011-19.56-37.969-34.517-55.227-17.258-17.258-32.216-27.613-55.227-34.517-17.258-8.054-42.571-14.957-89.744-17.258-49.474-2.301-64.431-2.301-192.144-2.301s-142.67 0-192.144 2.301c-47.173 2.301-72.485 10.355-89.744 17.258-23.011 8.054-37.969 19.56-55.227 34.517-17.258 17.258-27.613 32.216-34.517 55.227-8.054 17.258-14.957 42.571-17.258 89.744-2.301 49.474-2.301 64.431-2.301 192.144s0 142.67 2.301 192.144c2.301 47.173 10.355 72.485 17.258 89.744 8.054 23.011 19.56 37.969 34.517 55.227 17.258 17.258 32.216 27.613 55.227 34.517 17.258 8.054 42.571 14.957 89.744 17.258 49.474 2.301 64.431 2.301 192.144 2.301zM512 927.784c-130.013 0-147.272 0-196.746-2.301-50.625-3.452-85.142-10.355-118.508-23.011-29.915-12.656-57.528-29.915-82.84-57.528-27.613-25.312-44.872-52.926-57.528-82.84-9.204-32.216-18.409-66.733-21.861-117.357s-2.301-67.883-2.301-196.746 0-147.272 2.301-196.746 10.355-85.142 23.011-118.508 27.613-57.528 55.227-85.142c27.613-27.613 52.926-42.571 85.142-55.227 29.915-12.656 64.431-19.56 117.357-23.011 49.474-2.301 67.883-2.301 196.746-2.301s147.272 0 196.746 2.301c49.474 2.301 85.142 10.355 117.357 23.011s57.528 27.613 85.142 55.227c27.613 27.613 42.571 52.926 55.227 85.142 12.656 29.915 19.56 64.431 23.011 117.357 2.301 49.474 2.301 67.883 2.301 196.746s0 147.272-2.301 196.746c-2.301 49.474-10.355 85.142-23.011 117.357s-27.613 57.528-55.227 85.142-51.775 43.721-83.991 56.378c-29.915 12.656-64.431 19.56-117.357 23.011-50.625 0-67.883 2.301-197.897 2.301 0 0 0 0 0 0zM512 693.070c-134.616 0-245.070-110.454-245.070-245.070s110.454-245.070 245.070-245.070 245.070 110.454 245.070 245.070-110.454 245.070-245.070 245.070zM512 288.072c-87.443 0-159.928 72.485-159.928 159.928s72.485 159.928 159.928 159.928 159.928-72.485 159.928-159.928-72.485-159.928-159.928-159.928zM823.802 702.274c0-32.216-25.312-57.528-57.528-57.528s-57.528 25.312-57.528 57.528 25.312 57.528 57.528 57.528c32.216 0 57.528-25.312 57.528-57.528z" />
<glyph unicode="&#xe90e;" glyph-name="social-pinterest" d="M512 913.579c-258.048 0-465.579-208.896-465.579-466.944 0-191.147 114.688-356.352 279.893-427.349-2.731 31.403 0 70.997 6.827 107.861 9.557 36.864 58.709 255.317 58.709 255.317s-15.019 30.037-15.019 73.728c0 68.267 39.595 120.149 91.477 120.149 42.325 0 64.171-31.403 64.171-70.997 0-42.325-27.307-105.131-42.325-163.84-12.288-49.152 24.576-91.477 73.728-91.477 88.747 0 147.456 113.323 147.456 248.491 0 102.4-68.267 178.859-193.877 178.859-143.36 0-230.741-105.131-230.741-223.915 0-42.325 12.288-68.267 31.403-91.477 9.557-9.557 9.557-15.019 6.827-27.307-2.731-6.827-6.827-30.037-9.557-36.864-2.731-12.288-12.288-17.749-24.576-12.288-66.901 27.307-95.573 98.304-95.573 178.859 0 132.437 113.323 292.181 333.141 292.181 178.859 0 294.912-126.976 294.912-267.605 0-184.32-101.035-319.488-252.587-319.488-51.883 0-98.304 27.307-113.323 58.709 0 0-27.307-107.861-31.403-126.976-9.557-36.864-30.037-70.997-46.421-101.035 42.325-12.288 86.016-19.115 132.437-19.115 258.048 0 465.579 208.896 465.579 465.579 0 258.048-207.531 466.944-465.579 466.944z" />
<glyph unicode="&#xe90f;" glyph-name="social-twitter" d="M1017.6 761.6c-35.2-16-76.8-28.8-118.4-32 44.8 25.6 73.6 67.2 92.8 115.2-41.6-22.4-83.2-41.6-131.2-51.2-41.6 41.6-96 67.2-153.6 67.2-115.2 0-208-92.8-208-208 0-16 3.2-32 6.4-44.8-172.8 3.2-326.4 86.4-425.6 211.2-19.2-32-28.8-67.2-28.8-102.4 0-70.4 35.2-134.4 92.8-172.8-32 0-67.2 9.6-96 25.6v-3.2c0-99.2 70.4-185.6 166.4-201.6-19.2-6.4-35.2-6.4-54.4-6.4-12.8 0-25.6 3.2-38.4 3.2 25.6-83.2 102.4-140.8 192-144-70.4-57.6-160-89.6-256-89.6-19.2 0-32 0-48 3.2 89.6-57.6 198.4-92.8 313.6-92.8 380.8 0 588.8 313.6 588.8 588.8 0 6.4 0 19.2 0 25.6 41.6 32 76.8 67.2 105.6 108.8z" />
<glyph unicode="&#xe910;" glyph-name="social-windows" d="M834.56 724.48c-2.56 0-51.2 30.72-71.68 46.080-2.56 2.56-5.12 2.56-10.24 2.56-20.48-5.12-71.68-15.36-76.8-17.92-5.12 0-5.12 0-7.68 5.12-5.12 12.8-10.24 25.6-17.92 38.4-17.92 30.72-43.52 51.2-76.8 66.56-10.24 5.12-20.48 7.68-30.72 10.24-2.56 0-2.56 0-5.12 0v0l2.56-2.56c10.24-10.24 17.92-17.92 28.16-28.16 5.12-5.12 10.24-7.68 15.36-10.24 30.72-20.48 51.2-46.080 64-79.36 0-2.56 0-5.12-2.56-5.12-15.36-2.56-30.72-5.12-46.080-10.24-5.12 0-5.12 0-5.12 5.12-2.56 10.24-5.12 23.040-7.68 35.84-7.68 28.16-23.040 51.2-46.080 74.24-17.92 17.92-40.96 30.72-66.56 38.4-23.040 7.68-48.64 10.24-74.24 7.68-25.6-5.12-48.64-15.36-69.12-30.72-30.72-25.6-53.76-56.32-69.12-94.72-5.12-23.040-10.24-46.080-7.68-69.12 0-10.24 0-20.48 0-30.72 0-2.56-2.56-5.12-5.12-5.12-12.8-2.56-128-28.16-135.68-28.16 0-174.080 0-345.6 0-519.68 12.8-2.56 634.88-130.56 645.12-133.12 5.12 0 143.36 51.2 158.72 58.88 0 220.16 0 440.32 0 660.48-10.24 5.12-61.44 12.8-81.92 15.36zM591.36 540.16c0-51.2 0-102.4 0-153.6h-184.32v130.56h2.56c17.92 2.56 35.84 5.12 51.2 7.68 17.92 2.56 35.84 5.12 51.2 7.68 17.92 2.56 35.84 5.12 53.76 7.68 7.68 0 12.8 2.56 20.48 2.56 2.56 2.56 5.12 0 5.12-2.56zM276.48 716.8c2.56 33.28 12.8 64 30.72 89.6 15.36 23.040 33.28 40.96 56.32 53.76 25.6 15.36 56.32 17.92 87.040 12.8 33.28-5.12 58.88-20.48 81.92-46.080 17.92-20.48 30.72-43.52 35.84-71.68 0-7.68 2.56-12.8 2.56-20.48 0-2.56 0-5.12-2.56-5.12-7.68-2.56-17.92-2.56-25.6-5.12-15.36-2.56-33.28-7.68-48.64-10.24-12.8-2.56-23.040-5.12-35.84-7.68-15.36-2.56-33.28-7.68-48.64-10.24-12.8-2.56-25.6-5.12-35.84-7.68h-2.56c-7.68-2.56-7.68-2.56-7.68 7.68 5.12 51.2 28.16 92.16 66.56 122.88 15.36 12.8 30.72 20.48 48.64 25.6h2.56c-5.12 2.56-10.24 5.12-17.92 5.12-2.56 0-7.68 2.56-12.8 2.56-5.12 2.56-7.68 0-10.24-2.56-33.28-17.92-58.88-46.080-76.8-81.92-10.24-17.92-15.36-35.84-20.48-56.32-2.56-10.24-2.56-20.48-5.12-33.28 0-2.56-2.56-5.12-5.12-5.12-15.36-2.56-30.72-5.12-46.080-10.24-10.24-2.56-10.24-2.56-10.24 7.68 0 25.6 0 35.84 0 46.080zM258.56 496.64c30.72 5.12 115.2 15.36 128 17.92v-128h-133.12c0 35.84 0 69.12 0 104.96 0 5.12 0 5.12 5.12 5.12zM253.44 250.88c-2.56 0-2.56 87.040-2.56 115.2h133.12v-130.56c-15.36 2.56-115.2 15.36-130.56 15.36zM583.68 207.36c-28.16 5.12-166.4 25.6-176.64 28.16v0 133.12h184.32c0-51.2 0-102.4 0-153.6 0-10.24 0-10.24-7.68-7.68z" />
<glyph unicode="&#xe911;" glyph-name="social-youtube" d="M434.111 172.936c-10.349-12.528-17.974-20.153-25.6-20.153-4.902 0-7.626 2.723-10.349 10.349 0 2.723 0 4.902 0 15.251v167.217h-40.851v-180.289c0-15.251 2.723-27.779 2.723-33.226 4.902-12.528 12.528-17.974 25.6-17.974 15.251 0 30.502 10.349 45.753 27.779v-25.6h40.851v226.043h-40.851v-169.94l2.723 0.545zM208.613 381.004h47.932v-261.447h45.753v261.447h50.655v43.030h-144.34v-43.030zM487.489 578.723c12.528 0 20.153 10.349 20.153 33.226v93.685c0 20.153-7.626 33.226-20.153 33.226s-20.153-10.349-20.153-33.226v-96.409c0-20.698 7.626-30.502 20.153-30.502zM594.247 347.779c-15.251 0-27.779-7.626-43.030-25.6v99.132h-40.851v-304.477h40.851v22.877c12.528-17.974 27.779-25.6 43.030-25.6s27.779 7.626 33.226 25.6c2.723 10.349 4.902 25.6 4.902 45.753v91.506c0 20.153-2.723 35.404-4.902 45.753-5.447 17.43-15.796 25.055-33.226 25.055zM591.523 182.74c0-20.153-4.902-30.502-17.974-30.502-7.626 0-12.528 2.723-20.153 10.349v137.26c7.626 7.626 12.528 10.349 20.153 10.349 12.528 0 17.974-10.349 17.974-30.502 0-0.545 0-96.953 0-96.953zM726.060 347.779c-20.153 0-38.128-7.626-47.932-22.877-7.626-12.528-12.528-27.779-12.528-53.379v-78.434c0-22.877 4.902-43.030 12.528-53.379 12.528-15.251 27.779-22.877 50.655-22.877 20.153 0 38.128 7.626 50.655 25.6 4.902 7.626 7.626 15.251 10.349 25.6 0 4.902 0 12.528 0 25.6v4.902h-43.574c0-15.251 0-25.6 0-27.779-2.723-10.349-7.626-15.251-17.974-15.251-15.251 0-20.153 10.349-20.153 30.502v40.851h81.157v47.932c0 25.6-4.902 43.030-12.528 53.379-15.251 11.983-30.502 19.609-50.655 19.609zM746.213 258.996h-40.851v20.153c0 20.153 7.626 30.502 20.153 30.502s20.153-10.349 20.153-30.502c0.545 0 0.545-20.153 0.545-20.153zM875.847 910.979h-756.017c-50.655 0-91.506-40.851-91.506-91.506v-758.196c0-50.655 40.851-91.506 91.506-91.506h758.74c50.655 0 91.506 40.851 91.506 91.506v756.017c-0.545 50.655-43.574 93.685-94.23 93.685zM583.898 773.719h40.851v-167.217c0-10.349 0-15.251 0-15.251 0-7.626 4.902-10.349 10.349-10.349 7.626 0 17.974 7.626 25.6 20.153v172.664h40.851v-228.221h-40.851v25.6c-17.974-17.974-33.226-27.779-47.932-27.779-12.528 0-22.877 4.902-27.779 17.974-2.723 7.626-2.723 17.974-2.723 33.226v179.2h1.634zM426.485 698.009c0 25.6 4.902 43.030 12.528 53.379 12.528 15.251 27.779 22.877 47.932 22.877s38.128-7.626 47.932-22.877c10.349-10.349 12.528-27.779 12.528-53.379v-81.157c0-25.6-4.902-43.030-12.528-53.379-11.983-15.251-27.234-22.877-47.387-22.877s-38.128 7.626-47.932 22.877c-7.626 12.528-12.528 30.502-12.528 53.379-0.545 0-0.545 81.157-0.545 81.157zM314.826 849.974l33.226-122.009 30.502 122.009h45.753l-53.379-182.468v-124.187h-45.753v124.187c-4.902 22.877-12.528 53.379-27.779 96.409-10.349 27.779-20.153 58.281-30.502 86.060 0 0 47.932 0 47.932 0zM825.191 104.306c-7.626-35.404-38.128-63.183-73.532-65.906-83.881-10.349-169.94-10.349-253.821-10.349s-169.94 0-253.821 10.349c-35.404 4.902-65.906 30.502-73.532 65.906-12.528 50.655-12.528 106.757-12.528 159.591s0 108.936 12.528 159.591c7.626 35.404 38.128 63.183 73.532 65.906 83.881 10.349 169.94 10.349 253.821 10.349s169.94 0 253.821-10.349c35.404-4.902 65.906-30.502 73.532-65.906 12.528-50.655 12.528-106.757 12.528-159.591 0-50.655 0-106.213-12.528-159.591z" />
<glyph unicode="&#xe912;" glyph-name="star" d="M505.6 888c3.2 8 9.6 8 14.4 0l132.8-270.4c3.2-8 14.4-16 22.4-16l297.6-43.2c8-1.6 11.2-8 4.8-12.8l-216-211.2c-6.4-6.4-9.6-17.6-8-27.2l51.2-297.6c1.6-8-3.2-12.8-11.2-8l-267.2 140.8c-8 4.8-20.8 4.8-28.8 0l-267.2-140.8c-8-4.8-12.8 0-11.2 8l51.2 297.6c1.6 8-3.2 20.8-8 27.2l-216 209.6c-6.4 6.4-4.8 12.8 4.8 12.8l297.6 43.2c8 1.6 19.2 8 22.4 16l134.4 272z" />
<glyph unicode="&#xe913;" glyph-name="telephone" d="M980.48 176.64c-2.56 12.8-10.24 25.6-23.040 33.28l-192 112.64h-2.56c-7.68 5.12-17.92 5.12-25.6 5.12-15.36 0-30.72-5.12-40.96-17.92l-56.32-56.32c-2.56-2.56-10.24-5.12-12.8-5.12 0 0-66.56 5.12-186.88 125.44s-125.44 186.88-125.44 186.88c0 2.56 2.56 10.24 5.12 12.8l48.64 48.64c17.92 17.92 23.040 46.080 12.8 66.56l-107.52 202.24c-7.68 15.36-23.040 25.6-38.4 25.6-12.8 0-23.040-5.12-33.28-12.8l-133.12-130.56c-12.8-12.8-23.040-35.84-25.6-51.2 0-7.68-25.6-209.92 253.44-488.96 235.52-235.52 419.84-253.44 468.48-253.44v0c10.24 0 17.92 0 17.92 0 17.92 2.56 38.4 12.8 51.2 25.6l133.12 133.12c10.24 10.24 15.36 23.040 12.8 38.4z" />
<glyph unicode="&#xe914;" glyph-name="filter" d="M107.789 842.838c-11.716 11.716-7.030 21.089 9.373 21.089h867.002c16.403 0 21.089-9.373 9.373-21.089l-328.055-325.712c-11.716-11.716-21.089-35.149-21.089-49.208v-231.982c0-16.403-9.373-39.835-21.089-49.208l-145.281-145.281c-11.716-11.716-21.089-7.030-21.089 9.373v414.755c0 16.403-9.373 39.835-21.089 49.208l-328.055 328.055z" />
<glyph unicode="&#xe915;" glyph-name="menu" d="M51.717 850.36v-115.846h920.566v115.846c0 0-920.566 0-920.566 0zM51.717 506.958v-115.846h920.566v115.846c0 0-920.566 0-920.566 0zM51.717 162.521v-115.846h920.566v115.846c0 0-920.566 0-920.566 0z" />
<glyph unicode="&#xe916;" glyph-name="sortby" d="M665.6 204.8v339.2h-96v-339.2h-147.2l192-192 192 192h-140.8zM326.4 883.2l-192-192h147.2v-339.2h96v336h147.2l-198.4 195.2z" />
<glyph unicode="&#xe917;" glyph-name="time" d="M512 960c-282.317 0-512-229.683-512-512s229.683-512 512-512 512 229.683 512 512-229.683 512-512 512zM512 44.945c-222.243 0-403.066 180.802-403.066 403.055s180.823 403.055 403.066 403.055 403.066-180.802 403.066-403.055-180.823-403.055-403.066-403.055zM778.834 463.809h-230.094v276.657c0 23.281-18.876 42.157-42.157 42.157s-42.157-18.876-42.157-42.157v-318.814c0-23.281 18.876-42.157 42.157-42.157h272.252c23.281 0 42.157 18.876 42.157 42.157s-18.876 42.157-42.157 42.157z" />
<glyph unicode="&#xe918;" glyph-name="battery-full" d="M736 576h-576c-17.696 0-32-14.304-32-32v-192c0-17.696 14.304-32 32-32h576c17.696 0 32 14.304 32 32v192c0 17.696-14.304 32-32 32zM960 608h-64c0 52.928-43.072 96-96 96h-704c-52.928 0-96-43.072-96-96v-320c0-52.928 43.072-96 96-96h704c52.928 0 96 43.072 96 96h64c35.328 0 64 28.672 64 64v192c0 35.296-28.672 64-64 64zM832 288c0-17.664-14.336-32-32-32h-704c-17.664 0-32 14.336-32 32v320c0 17.664 14.336 32 32 32h704c17.664 0 32-14.336 32-32v-320zM960 352h-64v192h64v-192z" />
<glyph unicode="&#xe919;" glyph-name="bluetooth" d="M512-64c-7.161 0-13.964 1.432-20.766 4.297-18.26 8.235-30.076 26.495-30.076 46.903v345.869l-168.28-153.6c-20.766-18.976-52.99-17.186-71.608 3.938s-17.186 53.348 3.938 72.324l211.245 192.269-211.603 192.269c-20.766 18.976-22.557 51.2-3.58 72.324s50.842 22.557 71.608 3.938l168.638-153.6v345.869c0 20.408 11.815 38.669 30.076 46.903s39.743 4.655 54.422-8.593l253.136-230.579c10.741-9.667 16.828-23.631 16.828-37.952 0-14.68-6.087-28.285-16.828-37.952l-211.245-192.627 211.245-192.269c10.741-9.667 16.828-23.631 16.828-37.952s-6.087-28.285-16.828-37.952l-253.136-230.579c-9.667-8.593-21.483-13.248-34.014-13.248zM559.62 333.069v-230.937l129.969 115.29-129.969 115.648zM559.62 793.869v-230.937l129.969 115.29c0 0.358-129.969 115.648-129.969 115.648z" />
<glyph unicode="&#xe91a;" glyph-name="book" d="M928 812.2v-780c0-17.8-14.4-32.4-32.4-32.4h-735.6c-35.4 0-64 28.6-64 64s28.6 64 64 64h678.8c14 0 25.2 11.2 25.2 25.2v787.2c0 10.8-8.8 19.8-19.8 19.8h-684.2c-70.6 0-128-57.4-128-128v-768c0-70.6 57.4-128 128-128h799.6c17.8 0 32.4 14.4 32.4 32.4v844c0 10.8-8.8 19.8-19.8 19.8h-24.6c-10.8-0.2-19.6-9-19.6-20z" />
<glyph unicode="&#xe91b;" glyph-name="calendar" d="M819.2 681.6c-9.6 9.6-22.4 16-35.2 16h-48v35.2c0 16-6.4 32-19.2 44.8s-25.6 19.2-44.8 19.2h-25.6c-16 0-32-6.4-44.8-19.2s-19.2-25.6-19.2-44.8v-38.4h-150.4v38.4c0 16-6.4 32-19.2 44.8s-25.6 19.2-44.8 19.2h-16c-16 0-32-6.4-44.8-19.2s-19.2-28.8-19.2-44.8v-38.4h-48c-12.8 0-25.6-6.4-35.2-16-9.6-6.4-16-19.2-16-32v-496c0-12.8 6.4-25.6 16-35.2s22.4-16 35.2-16h547.2c12.8 0 25.6 6.4 35.2 16s16 22.4 16 35.2v496c-3.2 12.8-9.6 25.6-19.2 35.2zM352 150.4h-112v112h112v-112zM352 288h-112v124.8h112v-124.8zM352 435.2h-112v112h112v-112zM342.4 614.4c-3.2 3.2-3.2 6.4-3.2 9.6v108.8c0 3.2 0 6.4 3.2 9.6s6.4 3.2 9.6 3.2h25.6c3.2 0 6.4 0 9.6-3.2s3.2-6.4 3.2-9.6v-112c0-3.2 0-6.4-3.2-9.6s-6.4-3.2-9.6-3.2h-25.6c-3.2 0-6.4 3.2-9.6 6.4zM499.2 150.4h-124.8v112h124.8v-112zM499.2 288h-124.8v124.8h124.8v-124.8zM499.2 435.2h-124.8v112h124.8v-112zM649.6 150.4h-124.8v112h124.8v-112zM649.6 288h-124.8v124.8h124.8v-124.8zM649.6 435.2h-124.8v112h124.8v-112zM640 614.4c-3.2 3.2-3.2 6.4-3.2 9.6v108.8c0 3.2 0 6.4 3.2 9.6s6.4 3.2 9.6 3.2h22.4c3.2 0 6.4 0 9.6-3.2s3.2-6.4 3.2-9.6v-112c0-3.2 0-6.4-3.2-9.6-3.2 0-6.4-3.2-9.6-3.2h-25.6c0 0-3.2 3.2-6.4 6.4zM784 150.4h-112v112h112v-112zM784 288h-112v124.8h112v-124.8zM784 435.2h-112v112h112v-112z" />
<glyph unicode="&#xe91c;" glyph-name="camera" d="M512 540.8c-76.8 0-137.6-60.8-137.6-137.6s60.8-137.6 137.6-137.6c76.8 0 137.6 60.8 137.6 137.6 0 73.6-60.8 137.6-137.6 137.6zM876.8 675.2h-108.8c-16 0-32 12.8-35.2 25.6l-28.8 86.4c-3.2 12.8-22.4 25.6-35.2 25.6h-310.4c-16 0-32-12.8-35.2-25.6l-32-86.4c-3.2-12.8-19.2-25.6-35.2-25.6h-108.8c-51.2 0-89.6-41.6-89.6-92.8v-409.6c0-51.2 41.6-92.8 89.6-92.8h729.6c51.2 0 92.8 41.6 92.8 92.8v412.8c-3.2 48-41.6 89.6-92.8 89.6zM512 176c-124.8 0-227.2 102.4-227.2 227.2s102.4 227.2 227.2 227.2c124.8 0 227.2-102.4 227.2-227.2 0-128-102.4-227.2-227.2-227.2zM844.8 521.6c-19.2 0-32 12.8-32 32s12.8 32 32 32c19.2 0 32-12.8 32-32s-12.8-32-32-32z" />
<glyph unicode="&#xe91d;" glyph-name="fi-check" d="M371.2 134.4l-339.2 336 89.6 92.8 249.6-249.6 531.2 531.2 89.6-89.6z" />
<glyph unicode="&#xe91e;" glyph-name="clipboard-notes" d="M827 783.3h-0.2c0 0.5 0.2 1 0.2 1.5 0 29.6-24 53.7-53.7 53.7-0.4 0-0.8-0.1-1.2-0.1h-149.1v34.8c0 9-7.3 16.3-16.3 16.3v0.1l-188.9-0.1c-0.2 0-0.3 0-0.4 0-9 0-16.3-7.3-16.3-16.3 0-0.1 0-0.2 0-0.3v-34.6h-150.2c-0.1 0-0.1 0-0.2 0-29.6 0-53.7-24.1-53.7-53.7 0-0.5 0.1-0.9 0.1-1.4h-0.1v-722.7c0-0.1 0-0.2 0-0.3 0-29.6 24.1-53.6 53.7-53.6 0.8 0 1.5 0.2 2.3 0.2v-0.2h517.1c1-0.1 2-0.3 3-0.3 29.6 0 53.6 24 53.6 53.6 0 0.2-0.1 0.4-0.1 0.6h0.3l0.1 722.8zM728.3 41.9h-461c-23.6 0-42.7 19.1-42.7 42.7v677.6c0 22.5 18.2 40.7 40.7 40.7h28.3v-38.1c0-0.4-0.1-0.8-0.1-1.2 0-12.4 11.2-22.5 25.1-22.5 0.1 0 0.1 0 0.2 0v-0.1h387.3c13.9 0 25.1 10.1 25.1 22.5 0 0.2-0.1 0.4-0.1 0.5v38.8h38.8c16.7 0 30.2-13.5 30.2-30.2v-674.7c0-31-25.1-56.1-56.1-56.1h-15.7zM282.5 351.7h411.3c8.7 0 15.8 7.1 15.8 15.8s-7.1 15.8-15.8 15.8h-411.3c-8.7 0-15.8-7.1-15.8-15.8 0-8.8 7-15.8 15.8-15.8zM630.5 288.4h-348c-8.7 0-15.8-7.1-15.8-15.8s7.1-15.8 15.8-15.8h348c8.7 0 15.8 7.1 15.8 15.8s-7.1 15.8-15.8 15.8zM282.5 636.4h205.6c8.7 0 15.8 7.1 15.8 15.8s-7.1 15.8-15.8 15.8h-205.6c-8.7 0-15.8-7.1-15.8-15.8s7-15.8 15.8-15.8zM488.1 161.9c8.7 0 15.8 7.1 15.8 15.8s-7.1 15.8-15.8 15.8h-205.6c-8.7 0-15.8-7.1-15.8-15.8s7.1-15.8 15.8-15.8h205.6zM741.2 573.1h-458.7c-8.7 0-15.8-7.1-15.8-15.8s7.1-15.8 15.8-15.8h458.7c8.7 0 15.8 7.1 15.8 15.8 0 8.8-7.1 15.8-15.8 15.8zM282.5 446.6h221.4c8.7 0 15.8 7.1 15.8 15.8s-7.1 15.8-15.8 15.8h-221.4c-8.7 0-15.8-7.1-15.8-15.8s7-15.8 15.8-15.8zM757 462.4c0 8.7-7.1 15.8-15.8 15.8h-110.7c-8.7 0-15.8-7.1-15.8-15.8s7.1-15.8 15.8-15.8h110.7c8.7 0 15.8 7.1 15.8 15.8zM578.4 451.2c2.8 3 4.6 7.1 4.6 11.2s-1.7 8.2-4.6 11.2c-6 5.9-16.6 5.9-22.5 0-2.8-3-4.6-7.1-4.6-11.2 0-4.3 1.7-8.2 4.6-11.2 3-2.9 7.1-4.6 11.2-4.6 4.2 0 8.3 1.7 11.3 4.6z" />
<glyph unicode="&#xe91f;" glyph-name="fi-heart" d="M704.158 832.316c-80.909 0-154.232-36.662-202.272-99.872-48.040 63.21-122.627 99.872-202.272 99.872-141.59 0-256.632-115.042-256.632-256.632 0-152.968 73.323-242.726 132.741-314.785l12.642-15.17c70.795-85.965 288.237-241.462 297.086-249.047 5.057-3.793 11.378-5.057 17.699-5.057s12.642 2.528 17.699 5.057c8.849 6.321 226.291 161.817 297.086 249.047l12.642 15.17c56.889 72.059 130.212 161.817 130.212 314.785 0 141.59-116.306 256.632-256.632 256.632v0z" />
<glyph unicode="&#xe920;" glyph-name="info" d="M512 858.947c-226.358 0-410.947-184.589-410.947-410.947s184.589-410.947 410.947-410.947 410.947 184.589 410.947 410.947-184.589 410.947-410.947 410.947zM553.768 218.947c0-8.084-6.737-14.821-14.821-14.821h-55.242c-8.084 0-14.821 6.737-14.821 14.821v265.432c0 8.084 6.737 14.821 14.821 14.821h55.242c8.084 0 14.821-6.737 14.821-14.821v-265.432zM512 558.484c-26.947 0-49.853 22.905-49.853 49.853s22.905 49.853 49.853 49.853c28.295 0 49.853-21.558 49.853-49.853s-22.905-49.853-49.853-49.853z" />
<glyph unicode="&#xe921;" glyph-name="list" d="M179.845 649.964h0.123c0-12.749 10.281-23.081 22.999-23.214v-0.020l618.076 0.010c12.78 0.061 23.132 10.424 23.132 23.224h0.102v107.1c-0.020 12.81-10.414 23.194-23.235 23.194v0h-618.076c0 0 0 0 0 0-12.831 0-23.235-10.414-23.235-23.235 0-0.399 0.102-0.778 0.123-1.178l-0.010-105.882zM821.033 524.759v0h-618.066c0 0 0 0 0 0-12.831 0-23.235-10.414-23.235-23.235 0-0.399 0.102-0.778 0.123-1.178v-105.882h0.123c0-12.749 10.281-23.081 22.999-23.214v-0.020l618.076 0.010c12.78 0.061 23.132 10.424 23.132 23.224h0.102v107.1c-0.041 12.81-10.435 23.194-23.255 23.194zM821.033 269.271v0h-618.066c0 0 0 0 0 0-12.831 0-23.235-10.414-23.235-23.235 0-0.399 0.102-0.778 0.123-1.178v-105.882h0.123c0-12.749 10.281-23.081 22.999-23.214v-0.020l618.076 0.010c12.78 0.061 23.132 10.435 23.132 23.235h0.102v107.1c-0.041 12.8-10.435 23.183-23.255 23.183z" />
<glyph unicode="&#xe922;" glyph-name="lock" d="M910.647 474.237c-13.5 13.5-30.058 20.378-49.417 20.378h-23.18v139.59c0 89.154-32.096 165.827-96.032 229.763-64.191 63.936-140.864 96.032-230.018 96.032s-165.827-32.096-229.763-96.032c-63.936-63.936-96.032-140.609-96.032-229.763v-139.59h-23.18c-19.359 0-35.916-6.878-49.417-20.378s-20.378-30.058-20.378-49.417v-419.025c0-19.359 6.878-35.916 20.378-49.417s30.058-20.378 49.417-20.378h697.95c19.359 0 35.916 6.878 49.417 20.378s20.378 30.058 20.378 49.417v419.025c0.255 19.359-6.623 35.662-20.123 49.417zM698.205 494.615h-372.41v139.59c0 51.455 18.086 95.268 54.511 131.694 36.426 36.171 80.239 54.511 131.694 54.511s95.268-18.086 131.694-54.511c36.426-36.426 54.511-80.239 54.511-131.694v-139.59z" />
<glyph unicode="&#xe923;" glyph-name="fi-loop" d="M473.484 765.882c46.219 5.135 91.41 1.027 133.521-11.298 138.656-40.056 240.337-167.414 242.391-318.395h90.383c5.135 0 8.217-6.162 5.135-10.271l-137.629-186.929c-2.054-3.081-7.19-3.081-9.244 0l-136.602 185.902c-3.081 4.108 0 10.271 5.135 10.271h90.383c-2.054 99.627-62.652 183.848-148.927 220.822-32.867 13.352-68.814 20.542-106.816 18.487-52.381-3.081-99.627-22.596-138.656-53.408-20.542-16.433-50.327-12.325-66.76 9.244-15.406 20.542-10.271 48.273 9.244 64.706 46.219 38.002 104.762 63.679 168.441 70.869zM647.061 228.718c-39.029-30.812-86.275-50.327-138.656-53.408-38.002-2.054-73.95 5.135-106.816 18.487-86.275 36.975-147.9 121.196-148.927 220.822h90.383c5.135 0 8.217 6.162 5.135 10.271l-137.629 185.902c-2.054 3.081-7.19 3.081-9.244 0l-136.602-185.902c-3.081-4.108 0-10.271 5.135-10.271h90.383c2.054-150.981 103.735-278.339 242.391-318.395 42.11-12.325 86.275-16.433 133.521-11.298 63.679 7.19 121.196 32.867 169.468 70.869 19.515 15.406 23.623 44.164 9.244 64.706-17.46 20.542-47.246 24.65-67.787 8.217z" />
<glyph unicode="&#xe924;" glyph-name="fmagnifying-glass" d="M593.92 883.2c-189.44 0-345.6-153.6-345.6-345.6 0-76.8 25.6-145.92 66.56-202.24l-232.96-232.96c-23.040-23.040-23.040-58.88 0-81.92 10.24-10.24 25.6-17.92 40.96-17.92s30.72 5.12 40.96 17.92l232.96 232.96c56.32-38.4 125.44-61.44 197.12-61.44 192 0 345.6 156.16 345.6 345.6s-153.6 345.6-345.6 345.6zM593.92 294.4c-133.12 0-243.2 110.080-243.2 243.2s110.080 243.2 243.2 243.2 243.2-110.080 243.2-243.2c2.56-133.12-107.52-243.2-243.2-243.2z" />
<glyph unicode="&#xe925;" glyph-name="map" d="M840.386 787.484c0 0 0 0 0 0 0 13.62-10.593 24.717-24.213 24.717v0 0 0 0h-442.893l-280.969-280.969v-493.336c0-13.62 11.098-24.213 24.213-24.213v0h699.145c11.602 0 21.186 8.071 23.708 19.168h0.504v4.54c0 0 0 0 0 0.504 0 0 0 0 0 0.504v749.084h0.504zM623.48 723.421h128.126v-218.924l-161.419 161.419c0-0.504 33.293 57.505 33.293 57.505zM373.281 506.514v0c13.62 0 24.213 11.098 24.213 24.213v0 0 192.694h174.534l-242.128-419.184-148.808 148.808v53.47c0 0 192.189 0 192.189 0zM181.092 101.959v288.032l126.108-126.108-93.825-161.923c0 0-32.284 0-32.284 0zM264.828 101.959l302.156 523.602 184.623-184.623v-339.484h-486.778v0.504zM573.541 452.035c-59.019 0-106.94-47.921-106.94-106.94 0-23.708 7.567-45.399 20.682-63.054l69.107-119.551c0.504-1.009 1.009-1.513 1.513-2.522v0 0c3.531-5.044 9.080-8.071 15.637-8.071 6.053 0 11.098 2.522 14.629 7.062v0l0.504 1.009c1.009 1.513 2.018 3.027 2.522 4.54l67.594 117.533c13.115 17.655 21.186 39.85 21.186 64.063 1.009 58.010-47.417 105.931-106.435 105.931v0zM572.532 290.617c-29.257 0-52.966 23.708-52.966 52.966s23.708 52.966 52.966 52.966c29.257 0 52.966-23.708 52.966-52.966s-23.708-52.966-52.966-52.966z" />
<glyph unicode="&#xe926;" glyph-name="minus" d="M784 512h-681.6v-108.8h828.8v108.8z" />
<glyph unicode="&#xe927;" glyph-name="page-edit" d="M944.128 678.4l-194.56 194.56c-11.264 11.264-29.696 11.264-40.96 0l-532.48-532.48 1.024-1.024h-2.048l-72.704-271.36c-3.072-10.24-1.024-21.504 7.168-29.696 9.216-9.216 21.504-10.24 32.768-6.144v0l269.312 71.68v1.024l532.48 532.48c11.264 11.264 11.264 29.696 0 40.96zM191.488 121.344l43.008 161.792 117.76-117.76-160.768-44.032z" />
<glyph unicode="&#xe928;" glyph-name="plus" d="M569.6 864h-105.6v-352h-355.2v-105.6h355.2v-355.2h105.6v355.2h355.2v105.6h-355.2v352z" />
<glyph unicode="&#xe929;" glyph-name="fi-social-apple" d="M866.807 589.923c-46.709 59.284-113.179 93.418-175.158 93.418-82.639 0-117.67-39.523-175.158-39.523-59.284 0-104.196 39.523-175.158 39.523-70.063 0-144.618-42.218-192.225-115.874-66.47-102.4-55.691-295.523 52.996-459.004 38.625-58.386 89.825-124.856 157.193-125.754 60.182-0.898 77.249 38.625 158.091 38.625s97.011-39.523 156.295-38.625c67.368 0.898 122.161 73.656 160.786 132.94 27.846 42.218 37.726 63.775 59.284 110.484-156.295 59.284-181.446 279.354-26.947 363.789v0zM628.772 748.912c29.642 38.625 52.996 92.519 44.912 148.211-49.404-3.593-105.993-34.133-140.126-75.453-30.54-36.828-55.691-91.621-45.811-144.618 52.996-1.796 108.688 30.54 141.025 71.86v0z" />
<glyph unicode="&#xe92a;" glyph-name="tablet-portrait" d="M715.939 904.928h-407.879c-33.56 0-61.956-27.536-61.956-61.956v-790.803c0-33.56 27.536-61.956 61.956-61.956h407.879c33.56 0 61.956 27.536 61.956 61.956v791.664c0 33.56-28.397 61.096-61.956 61.096zM446.602 861.042h130.797c4.303 0 7.745-3.442 7.745-7.745s-3.442-7.745-7.745-7.745h-130.797c-4.303 0-7.745 3.442-7.745 7.745 0.861 4.303 3.442 7.745 7.745 7.745zM512 22.050c-17.21 0-30.978 13.768-30.978 30.978s13.768 30.978 30.978 30.978 30.978-13.768 30.978-30.978-13.768-30.978-30.978-30.978zM734.871 105.519h-445.741v701.311h444.881v-701.311z" />
<glyph unicode="&#xe92b;" glyph-name="torso" d="M501.76 472.576c92.16 0 166.912 91.136 166.912 202.752s-24.576 202.752-166.912 202.752-166.912-91.136-166.912-202.752c0-111.616 74.752-202.752 166.912-202.752zM186.368 162.304c0 7.168 0 2.048 0 0v0zM817.152 157.184c0 2.048 0 13.312 0 0v0zM817.152 170.496c-4.096 195.584-28.672 250.88-224.256 286.72 0 0-27.648-34.816-91.136-34.816s-91.136 34.816-91.136 34.816c-192.512-34.816-220.16-89.088-223.232-279.552 0-15.36 0-16.384 0-14.336 0-3.072 0-9.216 0-20.48 0 0 46.080-93.184 315.392-93.184s315.392 93.184 315.392 93.184c0 7.168 0 12.288 0 15.36-1.024-2.048-1.024 0-1.024 12.288z" />
<glyph unicode="&#xe92c;" glyph-name="trash" d="M811.089 753.172c-9.125 12.166-21.291 19.263-36.499 21.291l-143.968 20.277 6.083 45.624c2.028 12.166-1.014 24.333-9.125 34.471s-18.25 16.222-30.416 18.25l-121.663 16.222c-25.347 4.055-48.665-14.194-51.707-39.541l-6.083-45.624-143.968 20.277c-30.416 4.055-57.79-17.236-61.846-46.638l-9.125-67.929 128.76-18.25-90.234-90.234c-1.014-1.014-2.028-3.042-3.042-5.069h-16.222v-573.846c0-31.43 25.347-57.79 57.79-57.79h439.002c31.43 0 57.79 25.347 57.79 57.79v574.859h-77.053v42.582l113.552-16.222 9.125 67.929c1.014 15.208-3.042 29.402-11.152 41.568zM454.21 865.711c1.014 8.111 9.125 14.194 17.236 13.18l121.663-17.236c4.055-1.014 8.111-3.042 10.139-6.083s3.042-7.097 3.042-11.152l-6.083-45.624-152.079 21.291 6.083 45.624zM279.826 617.315l54.749 54.749 54.749-54.749h-109.497zM452.182 617.315v15.208h92.261v-15.208h-92.261zM621.497 617.315v15.208h46.638v-15.208h-46.638zM591.081 663.952v-46.638h-15.208v46.638h-154.107v-34.471l-82.123 82.123 336.602-47.651h-85.164z" />
<glyph unicode="&#xe92d;" glyph-name="video" d="M960 512l-192-128c0 38.848-17.664 73.216-44.992 96.704 65.056 39.2 108.992 109.824 108.992 191.296 0 123.713-100.288 224-224 224s-224-100.288-224-224c0-62.752 25.951-119.328 67.552-160h-117.377c30.656 34.016 49.825 78.592 49.825 128 0 106.048-85.952 192-192 192s-192-85.952-192-192c0-57.856 26.144-109.12 66.624-144.32-39.519-21.792-66.624-63.359-66.624-111.68v-256c0-70.688 57.312-128 128-128h512c70.688 0 128 57.312 128 128l192-128c35.36 0 64 28.64 64 64v384c0 35.36-28.64 64-64 64zM192 512c-70.688 0-128 57.312-128 128s57.312 128 128 128 128-57.312 128-128-57.312-128-128-128zM608 511.649c-88.576 0-160.351 71.809-160.351 160.351 0 88.576 71.809 160.351 160.351 160.351s160.351-71.775 160.351-160.351-71.777-160.351-160.351-160.351z" />
<glyph unicode="&#xe92e;" glyph-name="x" d="M934.4 774.4l-96 96-326.4-326.4-326.4 326.4-96-96 326.4-326.4-326.4-326.4 96-96 326.4 326.4 326.4-326.4 96 96-326.4 326.4 326.4 326.4z" />
<glyph unicode="&#xe92f;" glyph-name="zoom-in" d="M595.968 858.624c-175.104 0-316.416-142.336-316.416-316.416 0-69.632 22.528-133.12 60.416-185.344l-212.992-211.968c-20.48-20.48-20.48-54.272 0-74.752 10.24-10.24 23.552-15.36 36.864-15.36s26.624 5.12 36.864 15.36l212.992 212.992c51.2-35.84 113.664-57.344 181.248-57.344 175.104 0 316.416 142.336 316.416 316.416s-141.312 316.416-315.392 316.416zM595.968 318.976c-122.88 0-223.232 100.352-223.232 223.232s100.352 223.232 223.232 223.232 223.232-100.352 223.232-223.232c-1.024-122.88-100.352-223.232-223.232-223.232zM747.52 568.832h-121.856v120.832c0 0 0 0 0 1.024 0 5.12-4.096 9.216-9.216 9.216v0h-38.912c-5.12 0-9.216-4.096-9.216-9.216v-121.856h-121.856c-5.12 0-9.216-4.096-9.216-9.216v-38.912c0-5.12 4.096-9.216 9.216-9.216h121.856v-121.856c0-5.12 4.096-9.216 9.216-9.216h38.912c2.048 0 5.12 1.024 6.144 3.072 2.048 2.048 3.072 4.096 3.072 6.144v121.856h121.856c2.048 0 5.12 1.024 6.144 3.072 2.048 2.048 3.072 4.096 3.072 6.144v38.912c0 5.12-4.096 9.216-9.216 9.216z" />
<glyph unicode="&#xe930;" glyph-name="zoom-out" d="M595.968 850.432c-175.104 0-316.416-142.336-316.416-316.416 0-69.632 22.528-133.12 60.416-185.344l-212.992-212.992c-20.48-20.48-20.48-54.272 0-74.752 10.24-10.24 23.552-15.36 36.864-15.36s26.624 5.12 36.864 15.36l214.016 212.992c51.2-35.84 113.664-57.344 181.248-57.344 175.104 0 316.416 142.336 316.416 316.416s-142.336 317.44-316.416 317.44zM595.968 310.784c-122.88 0-223.232 100.352-223.232 223.232s100.352 223.232 223.232 223.232 223.232-100.352 223.232-223.232c-1.024-123.904-100.352-223.232-223.232-223.232zM747.52 559.616h-301.056c-5.12 0-9.216-4.096-9.216-9.216v-38.912c0-5.12 4.096-9.216 9.216-9.216h301.056c2.048 0 5.12 1.024 6.144 3.072 2.048 2.048 3.072 4.096 3.072 6.144v38.912c0 5.12-4.096 9.216-9.216 9.216z" />
<glyph unicode="&#xe931;" glyph-name="chevron-bottom" d="M512 112l-515.2 515.2 102.4 105.6 412.8-412.8 406.4 403.2 102.4-102.4z" />
<glyph unicode="&#xe932;" glyph-name="chevron-top" d="M508.8 758.4l515.2-515.2-102.4-105.6-412.8 412.8-406.4-403.2-102.4 102.4z" />
<glyph unicode="&#xe933;" glyph-name="results" d="M943.2 735.4v0c0 10-8.1 18-18 18 0 0 0 0-0.1 0v0.1l-469.8-0.1c-9.9-0.1-17.9-8-17.9-17.9v0-0.1c0 0 0 0 0 0s0 0 0 0v-64.8c0-0.3-0.1-0.6-0.1-0.9 0-10 8.1-18 18-18v0h469.8c0 0 0 0 0.1 0 10 0 18 8.1 18 18v0 65.7zM943.2 582.9v0c0 10-8.1 18-18 18 0 0 0 0-0.1 0v0.1l-469.8-0.1c-9.9-0.1-17.9-8-17.9-17.9v0-0.1c0 0 0 0 0 0v-64.9c0-0.3-0.1-0.6-0.1-0.9 0-10 8.1-18 18-18v0h469.8c0 0 0 0 0.1 0 10 0 18 8.1 18 18v65.8zM355.3 735.5v0c0 10-8.1 18-18 18-0.4 0-0.9-0.1-1.3-0.1h-215.9c-0.4 0-0.8 0.1-1.3 0.1-10 0-18-8.1-18-18v0-218.5c0-10 8.1-18 18-18v0h218.5c10 0 18 8.1 18 18v0 0 218.5zM943.2 378.9v0c0 10-8.1 18-18 18 0 0 0 0-0.1 0v0.1l-469.8-0.1c-9.9-0.1-17.9-8-17.9-17.9v0-0.1c0 0 0 0 0 0s0 0 0 0v-64.9c0-0.3-0.1-0.6-0.1-0.9 0-10 8.1-18 18-18v0h469.8c0 0 0 0 0.1 0 10 0 18 8.1 18 18v65.8zM943.2 226.4v0c0 10-8.1 18-18 18 0 0 0 0-0.1 0v0.1l-469.8-0.1c-9.9-0.1-17.9-8-17.9-17.9v0-0.1c0 0 0 0 0 0s0 0 0 0v-64.8c0-0.3-0.1-0.6-0.1-0.9 0-10 8.1-18 18-18h469.8c0 0 0 0 0.1 0 10 0 18 8.1 18 18v0 65.7zM355.3 379v0c0 10-8.1 18-18 18-0.4 0-0.9-0.1-1.3-0.1h-215.9c-0.4 0-0.8 0.1-1.3 0.1-10 0-18-8.1-18-18v0-218.5c0-10 8.1-18 18-18 0 0 0 0 0 0h218.5c10 0 18 8.1 18 18v0 0 218.5z" />
<glyph unicode="&#xe934;" glyph-name="google-plus" d="M512 917.873c-259.241 0-469.873-210.633-469.873-469.873s210.633-469.873 469.873-469.873 469.873 210.633 469.873 469.873-210.633 469.873-469.873 469.873zM393.722 213.063c-129.62 0-234.937 105.316-234.937 234.937s105.316 234.937 234.937 234.937c63.19 0 116.658-22.684 157.165-61.57l-63.19-61.57c-17.823 16.203-48.608 35.646-93.975 35.646-79.392 0-145.823-66.43-145.823-149.063s64.81-149.063 145.823-149.063c92.354 0 128 66.43 132.861 102.076h-132.861v81.013h221.975c1.62-11.342 3.241-24.304 3.241-38.886 1.62-132.861-89.114-228.456-225.215-228.456v0zM805.266 448v-58.329h-58.329v58.329h-58.329v58.329h58.329v58.329h58.329v-58.329h58.329v-58.329h-58.329z" />
<glyph unicode="&#xe935;" glyph-name="circle-check" d="M504.844 866.318c-231.604 0-418.968-187.365-418.968-418.968s187.365-418.968 418.968-418.968 418.968 187.365 418.968 418.968c0 231.604-187.365 418.968-418.968 418.968zM438.485 230.058c-9.108-9.108-20.818-13.011-31.227-13.011s-23.421 3.903-31.227 13.011l-175.654 174.353c-18.216 18.216-18.216 45.54 0 63.756s45.54 18.216 63.756 0l143.126-143.126 338.297 338.297c18.216 16.915 45.54 16.915 63.756 0 18.216-18.216 18.216-45.54 0-63.756l-370.826-369.525z" />
<glyph unicode="&#xe936;" glyph-name="burst" d="M906.848 448.416c0 9.056-4.448 17.024-11.232 22.016l0.128 0.256-95.488 55.136 54.944 95.2-0.192 0.128c3.36 7.712 3.232 16.832-1.312 24.672s-12.384 12.512-20.736 13.44v0.256h-110.272v109.952h-0.224c-0.928 8.352-5.632 16.192-13.44 20.704s-16.992 4.672-24.704 1.28l-0.128 0.224-97.088-56.064-53.76 93.12-0.192-0.128c-4.992 6.752-12.96 11.2-22.016 11.2s-17.024-4.448-22.016-11.232l-0.256 0.128-54.656-94.656-94.112 54.336-0.128-0.192c-7.712 3.36-16.832 3.232-24.672-1.312s-12.512-12.384-13.472-20.736h-0.288v-109.312h-108.672v-0.224c-8.352-0.928-16.192-5.632-20.704-13.44s-4.672-16.96-1.28-24.672l-0.224-0.128 53.728-93.056-96.192-55.552 0.128-0.192c-6.752-4.992-11.2-12.96-11.2-22.016s4.448-17.024 11.232-22.016l-0.128-0.256 95.488-55.136-54.944-95.2 0.192-0.128c-3.36-7.712-3.232-16.832 1.312-24.672s12.384-12.512 20.736-13.44v-0.288h110.24v-109.92h0.224c0.928-8.352 5.632-16.192 13.44-20.704s16.992-4.672 24.704-1.28l0.128-0.224 97.088 56.064 53.76-93.12 0.192 0.128c4.992-6.752 12.96-11.2 22.016-11.2s17.024 4.448 22.016 11.232l0.224-0.128 54.656 94.656 94.112-54.336 0.128 0.192c7.712-3.36 16.832-3.232 24.672 1.312s12.512 12.384 13.472 20.736h0.288v109.28h108.672v0.224c8.352 0.928 16.192 5.632 20.704 13.44s4.672 16.992 1.28 24.704l0.224 0.128-53.728 93.056 96.192 55.552-0.128 0.192c6.752 4.992 11.2 12.96 11.2 22.016z" />
<glyph unicode="&#xe937;" glyph-name="target-two" d="M940.563 455.043h-72.059c-11.92 178.794-154.413 321.287-333.206 333.206v72.059c0 13.003-10.836 23.839-23.839 23.839s-23.839-10.836-23.839-23.839v-72.059c-178.794-11.92-321.287-154.413-333.206-333.206h-72.059c-13.003 0-23.839-10.836-23.839-23.839s10.836-23.839 23.839-23.839h72.059c11.92-178.794 154.413-321.287 333.206-333.206v-72.059c0-13.003 10.836-23.839 23.839-23.839s23.839 10.836 23.839 23.839v72.059c178.794 11.92 321.287 154.413 333.206 333.206h72.059c13.003 0 23.839 10.836 23.839 23.839s-10.836 23.839-23.839 23.839zM487.619 169.515c-126.239 11.378-226.472 112.152-237.85 237.85h47.678c10.836-100.233 90.48-179.335 190.171-190.171 0 0 0-47.678 0-47.678zM487.619 645.215c-100.233-10.836-179.335-90.48-190.171-190.171h-47.678c11.378 125.697 111.611 226.472 237.85 237.85v-47.678zM535.297 692.893c126.239-11.378 226.472-112.152 237.85-237.85h-47.678c-10.836 100.233-90.48 179.335-190.171 190.171v47.678zM535.297 169.515v47.678c100.233 10.836 179.335 90.48 190.171 190.171h47.678c-11.378-126.239-112.152-226.472-237.85-237.85z" />
<glyph unicode="&#xe938;" glyph-name="flag" d="M791.447 750.415c-1.914 0-3.828 0-5.742-0.957v0c-33.495-17.226-71.776-27.753-111.97-27.753-74.647 0-141.637 33.495-186.617 87.088-40.194 38.28-94.744 61.249-154.079 61.249-57.421 0-110.056-22.011-150.25-57.421-8.613 17.226-25.839 29.667-46.893 29.667-28.71 0-52.636-22.968-52.636-52.636v-770.393c0-28.71 22.968-52.636 52.636-52.636s52.636 22.968 52.636 52.636v426.826c32.538 16.269 69.862 25.839 109.099 25.839 74.647 0 141.637-33.495 186.617-87.088 40.194-38.28 94.744-61.249 154.079-61.249 65.077 0 122.497 27.753 163.649 70.819 2.871 2.871 4.785 6.699 4.785 11.484v329.211c0 8.613-6.699 15.312-15.312 15.312v0z" />
<glyph unicode="&#xe939;" glyph-name="refresh" d="M926.476 467.505c-6.827 11.703-19.505 19.505-34.133 19.505h-61.44c-9.752 88.747-50.712 171.642-117.029 232.107-68.267 63.39-157.989 98.499-251.611 98.499-203.825 0-370.59-165.79-370.59-370.59 0-203.825 165.79-370.59 370.59-370.59 21.455 0 39.010 17.554 39.010 39.010s-17.554 39.010-39.010 39.010c-160.914 0-292.571 130.682-292.571 292.571 0 160.914 130.682 292.571 292.571 292.571 73.143 0 143.36-27.307 196.998-76.069 50.712-46.811 83.87-109.227 92.648-176.518h-56.564c-13.653 0-26.331-7.802-34.133-19.505-3.901-5.851-4.876-12.678-4.876-19.505s1.95-13.653 4.876-19.505l99.474-169.691c6.827-11.703 19.505-19.505 34.133-19.505 13.653 0 27.307 7.802 34.133 19.505l97.524 169.691c6.827 11.703 6.827 27.307 0 39.010z" />
<glyph unicode="&#xe93a;" d="M512 767.488c176.128 0 319.488-143.36 319.488-319.488s-143.36-319.488-319.488-319.488-319.488 143.36-319.488 319.488c0 176.128 143.36 319.488 319.488 319.488zM512 832c-211.968 0-384-172.032-384-384s172.032-384 384-384c211.968 0 384 172.032 384 384s-172.032 384-384 384v0z" />
<glyph unicode="&#xe93b;" glyph-name="grid3" d="M164.030 415.763c-33.185 0-60.681-27.496-60.681-60.681v-253.156c0-33.185 27.496-60.681 60.681-60.681h244.622c33.185 0 61.63 27.496 61.63 60.681v252.207c0 33.185-27.496 60.681-61.63 60.681h-244.622zM470.281 794.074c0 33.185-27.496 61.63-61.63 61.63h-244.622c-34.133 0-60.681-27.496-60.681-61.63v-236.089c0-33.185 27.496-61.63 60.681-61.63h244.622c33.185 0 61.63 27.496 61.63 61.63 0 0 0 236.089 0 236.089zM857.126 497.304c33.185 0 60.681 27.496 60.681 61.63v235.141c0 33.185-27.496 60.681-60.681 60.681h-244.622c-33.185 0-60.681-27.496-60.681-60.681v-236.089c0-33.185 27.496-61.63 60.681-61.63h244.622zM551.822 100.978c0-33.185 27.496-60.681 60.681-60.681h244.622c33.185 0 60.681 27.496 60.681 60.681v253.156c0 33.185-27.496 60.681-60.681 60.681h-244.622c-33.185 0-60.681-27.496-60.681-60.681v-253.156z" />
<glyph unicode="&#xe93c;" glyph-name="grid4" d="M307.2 507.977c0 32.183-24.869 57.051-57.051 57.051h-119.954c-32.183 0-57.051-26.331-57.051-57.051v-119.954c0-30.72 24.869-57.051 57.051-57.051h119.954c32.183 0 57.051 24.869 57.051 57.051v119.954zM307.2 829.806c0 32.183-26.331 57.051-57.051 57.051h-119.954c-32.183 0-57.051-24.869-57.051-57.051v-119.954c0-32.183 24.869-57.051 57.051-57.051h119.954c32.183 0 57.051 24.869 57.051 57.051v119.954zM893.806 652.8c30.72 0 57.051 24.869 57.051 57.051v119.954c0 32.183-26.331 57.051-57.051 57.051h-119.954c-30.72 0-57.051-24.869-57.051-57.051v-119.954c0-32.183 26.331-57.051 57.051-57.051h119.954zM571.977 652.8c32.183 0 57.051 24.869 57.051 57.051v119.954c0 32.183-24.869 57.051-57.051 57.051h-119.954c-32.183 0-57.051-24.869-57.051-57.051v-119.954c0-32.183 24.869-57.051 57.051-57.051h119.954zM130.194 243.2c-32.183 0-57.051-26.331-57.051-57.051v-119.954c0-30.72 24.869-57.051 57.051-57.051h119.954c32.183 0 57.051 26.331 57.051 57.051v119.954c0 30.72-24.869 57.051-57.051 57.051h-119.954zM394.971 388.023c0-32.183 24.869-57.051 57.051-57.051h119.954c32.183 0 57.051 24.869 57.051 57.051v119.954c0 32.183-24.869 57.051-57.051 57.051h-119.954c-32.183 0-57.051-24.869-57.051-57.051v-119.954zM773.851 565.029c-30.72 0-57.051-24.869-57.051-57.051v-119.954c0-32.183 26.331-57.051 57.051-57.051h119.954c30.72 0 57.051 24.869 57.051 57.051v119.954c0 32.183-26.331 57.051-57.051 57.051h-119.954zM452.023 243.2c-32.183 0-57.051-26.331-57.051-57.051v-119.954c0-30.72 24.869-57.051 57.051-57.051h119.954c32.183 0 57.051 26.331 57.051 57.051v119.954c0 30.72-24.869 57.051-57.051 57.051h-119.954zM716.8 66.194c0-30.72 26.331-57.051 57.051-57.051h119.954c30.72 0 57.051 26.331 57.051 57.051v119.954c0 30.72-26.331 57.051-57.051 57.051h-119.954c-30.72 0-57.051-26.331-57.051-57.051v-119.954z" />
<glyph unicode="&#xe93d;" glyph-name="souq-gold" horiz-adv-x="1302" d="M828.894 523.373l-198.803 240.289-196.339-240.289-272.738 239.057 129.386-584.908c0 0 598.052 0 683.488 0 32.449 117.064 120.35 584.908 120.35 584.908l-265.345-239.057z" />
<glyph unicode="&#xe93e;" d="M689.152 584.192l-40.96 40.96-136.192-136.192-136.192 136.192-40.96-40.96 136.192-136.192-136.192-136.192 40.96-40.96 136.192 136.192 136.192-136.192 40.96 40.96-136.192 136.192 136.192 136.192z" />
<glyph unicode="&#xe93f;" glyph-name="bundle" d="M1008.604 352.045c-1.79 0-1.79-1.79-3.222-1.79l-37.236-23.631c6.803-5.013 10.025-11.815 10.025-16.828 0-8.593-8.593-18.618-22.199-27.211l-358.758-215.899c-18.618-10.025-44.039-16.828-71.25-18.618-1.79 0-5.013 0-6.803 0-25.421 0-47.62 5.013-64.448 13.606l-375.944 192.269c-13.606 6.803-22.199 16.828-23.631 25.421 0 5.013 3.222 11.815 10.025 18.618l-40.817 20.408c-1.79 0-1.79 1.79-3.222 1.79-10.025-13.606-15.396-29.001-13.606-42.607 1.79-27.211 18.618-50.842 49.41-66.238l375.944-192.269c23.631-11.815 54.422-18.618 86.646-18.618 3.222 0 5.013 0 8.593 0 35.804 1.79 69.818 10.025 95.239 25.421l356.968 215.899c29.001 16.828 45.829 42.607 44.039 69.818-0.358 15.038-7.161 28.643-15.754 40.459zM984.615 528.917l-45.829-27.211 10.025-5.013c13.606-8.593 22.199-16.828 22.199-27.211 0-8.593-8.593-18.618-22.199-27.211l-356.968-216.257c-18.618-10.025-44.039-16.828-71.25-18.618-1.79 0-5.013 0-6.803 0-25.421 0-47.62 5.013-66.238 13.606l-374.154 190.478c-13.606 6.803-22.199 16.828-23.631 25.421 0 8.593 6.803 18.618 20.408 27.211l10.025 6.803-49.41 25.421c-20.408-16.828-32.224-39.027-30.434-61.225 1.79-27.211 18.618-50.842 49.41-66.238l375.944-192.269c23.631-11.815 54.422-18.618 86.646-18.618 3.222 0 5.013 0 8.593 0 35.804 1.79 69.818 10.025 95.239 25.421l356.968 215.899c29.001 16.828 45.829 42.607 44.039 69.818 1.432 23.989-12.173 44.397-32.582 59.793zM617.622 564.364c-5.013 5.013-11.815 8.593-20.408 8.593s-15.396-3.58-20.408-8.593-8.593-11.815-8.593-20.408c0-8.593 3.58-17.186 8.593-22.199s11.815-8.593 20.408-8.593 15.396 3.58 20.408 8.593 8.593 11.815 8.593 22.199c-0.358 8.593-3.58 15.396-8.593 20.408zM617.622 564.364c-5.013 5.013-11.815 8.593-20.408 8.593s-15.396-3.58-20.408-8.593-8.593-11.815-8.593-20.408c0-8.593 3.58-17.186 8.593-22.199s11.815-8.593 20.408-8.593 15.396 3.58 20.408 8.593 8.593 11.815 8.593 22.199c-0.358 8.593-3.58 15.396-8.593 20.408zM952.392 674.999l-368.783 202.294c-20.408 11.815-49.41 17.186-76.621 17.186-30.434 0-63.015-6.803-86.646-22.199l-367.351-229.505c-35.804-22.199-40.817-54.422-18.618-78.053 5.013-6.803 11.815-11.815 22.199-17.186l3.58-1.79 30.434-15.396 49.41-25.421 30.434-13.606 30.792-15.396 231.295-118.87c22.199-11.815 49.41-17.186 76.621-17.186 32.224 0 66.238 6.803 90.227 22.199l220.912 136.056 58.003 34.372 47.62 29.001 29.001 17.186c10.383 6.803 18.618 13.606 23.989 20.408 17.902 25.063 9.309 55.497-26.495 75.905zM345.51 664.973c-1.79 6.803-5.371 15.038-5.371 25.421s1.79 18.618 5.013 27.211 8.593 15.396 15.396 22.199 13.606 11.815 22.199 15.396c8.593 3.58 17.186 5.013 27.211 5.013s18.618-1.79 27.211-5.013c8.593-3.58 15.396-8.593 22.199-15.396s11.815-13.606 15.396-22.199 5.013-17.186 5.013-27.211-1.79-18.618-5.013-27.211c-3.58-8.593-8.593-15.396-15.396-22.199s-13.606-10.025-22.199-13.606c-8.593-3.58-17.186-5.013-27.211-5.013-10.383 0-18.618 1.79-27.211 5.013-8.593 3.58-15.396 8.593-22.199 15.396s-11.815 13.606-15.038 22.199zM432.157 479.508h-49.41l193.701 273.902h49.41l-193.701-273.902zM659.871 516.744c-3.58-8.593-8.593-15.396-15.396-22.199s-13.606-10.383-22.199-13.606c-8.593-3.58-17.186-5.013-27.211-5.013-10.383 0-18.618 1.79-27.211 5.013s-15.396 8.593-22.199 15.396c-6.803 6.803-11.815 13.606-15.396 22.199-3.222 6.803-5.013 17.186-5.013 25.421 0 10.383 1.79 18.618 5.013 27.211 3.58 8.593 8.593 15.396 15.396 22.199s13.606 11.815 22.199 15.396 17.186 5.013 27.211 5.013 18.618-1.79 27.211-5.013c8.593-3.58 15.396-8.593 22.199-15.396s11.815-13.606 15.396-22.199c3.58-8.593 5.013-17.186 5.013-27.211 0.358-10.025-1.432-18.618-5.013-27.211zM597.214 572.957c-8.593 0-15.396-3.58-20.408-8.593s-8.593-11.815-8.593-20.408c0-8.593 3.58-17.186 8.593-22.199s11.815-8.593 20.408-8.593 15.396 3.58 20.408 8.593 8.593 11.815 8.593 22.199c0 8.593-3.58 15.396-8.593 20.408-5.371 5.371-12.173 8.593-20.408 8.593zM411.748 659.603c8.593 0 15.396 3.58 20.408 8.593s8.593 11.815 8.593 22.199c0 8.593-3.58 15.396-8.593 20.408s-11.815 8.593-20.408 8.593c-8.593 0-15.396-3.58-20.408-8.593s-8.593-11.815-8.593-20.408c0-8.593 3.58-17.186 8.593-22.199s11.815-8.593 20.408-8.593z" />
<glyph unicode="&#xe940;" glyph-name="empty-star" horiz-adv-x="1076" d="M1075.529 563.118c0 15.349-12.060 25.216-36.18 29.602l-324.522 47.143-145.816 293.824c-7.675 17.542-18.638 26.313-31.794 26.313s-23.024-8.771-31.794-26.313l-144.719-293.824-324.522-47.143c-24.12-4.385-36.18-14.253-36.18-29.602 1.096-12.060 7.675-23.024 16.445-30.698l235.717-228.043-55.914-322.33c-1.096-4.385-1.096-8.771-1.096-13.156 0-7.675 2.193-16.445 6.578-23.024s12.060-9.867 20.831-9.867 17.542 3.289 26.313 7.675l288.343 153.49 290.535-152.394c7.675-4.385 16.445-7.675 26.313-7.675 17.542 0 26.313 10.964 26.313 31.794 0 4.385 0 8.771-1.096 13.156l-55.914 322.33 234.621 228.043c10.964 7.675 16.445 18.638 17.542 30.698zM734.561 332.882l47.143-271.897-244.488 128.274-244.488-128.274 47.143 271.897-198.441 191.863 272.994 39.469 122.792 246.681 122.792-246.681 272.994-39.469-198.441-191.863z" />
<glyph unicode="&#xe941;" glyph-name="cargo-truck" d="M884.394 634.133h-139.649v186.197h-651.648c-51.201 0-93.098-41.941-93.098-93.098v-511.999h93.098c0-77.269 62.38-139.563 139.606-139.563 77.312 0 139.649 62.337 139.649 139.563h279.252c0-77.269 62.38-139.563 139.649-139.563s139.606 62.337 139.606 139.563h93.141v232.747l-139.606 186.154zM232.704 145.387c-38.614 0-69.803 31.232-69.803 69.846 0 38.657 31.146 69.846 69.803 69.846s69.846-31.146 69.846-69.846c0-38.571-31.191-69.846-69.846-69.846zM861.097 564.331l91.221-116.351h-207.614v116.351h116.394zM791.296 145.387c-38.657 0-69.846 31.232-69.846 69.846 0 38.657 31.146 69.846 69.846 69.846 38.614 0 69.803-31.146 69.803-69.846-0.002-38.571-31.191-69.846-69.803-69.846z" />
<glyph unicode="&#xe942;" glyph-name="qty-cart" horiz-adv-x="1224" d="M679.043 711.213h-153.036v86.135h153.036v148.436h81.535v-148.436h148.436v-86.135h-148.436v-148.436h-81.535zM679.043 945.784v-148.436h-153.036v-86.135h153.036v-148.436h81.535v148.436h148.436v86.135h-148.436v148.436zM531.025 79.837c0-19.234-9.617-38.468-28.851-47.667-43.067-23.833-95.752 23.833-71.918 71.918 9.617 14.216 23.833 28.851 43.067 28.851 28.851-0.418 52.684-19.652 57.702-53.102v0zM990.131 89.454c4.599 19.234 19.234 33.45 33.45 38.468 33.45 9.617 62.301-9.617 66.901-43.067 0-23.833-19.234-52.684-43.067-52.684-38.050-9.617-66.901 23.833-57.284 57.284v0zM1018.982 275.94c38.468 0 47.667 9.617 57.284 28.851l143.419 439.873c9.617 19.234 0 33.45-4.599 38.468-14.216 19.234-43.067 19.234-52.684 19.234h-38.468c-4.599 0-4.599 0-9.617-4.599l-119.167-363.773c-4.599-19.234-23.833-33.45-47.667-33.45h-473.741c-23.833 0-43.067 14.216-47.667 38.468l-81.535 367.954-19.234 109.968c-5.018 23.833-23.833 43.067-62.301 43.067h-224.536c-24.252 0-38.468-14.216-38.468-33.45v-62.301c0-19.234 14.216-28.851 38.468-28.851h191.503l148.436-660.227c-23.833-23.833-38.468-62.301-38.468-95.752 0-76.518 62.301-143.419 138.819-143.419 71.918 0 124.185 66.901 133.802 109.968h286.837c9.617-43.067 57.284-114.986 143.419-109.968 71.918 4.599 129.202 71.918 124.185 148.436 0 76.518-47.667 133.802-138.819 133.802-38.468 0-81.117-19.234-100.351-47.667h-358.755c-23.833 38.468-52.684 52.684-86.135 52.684l-14.216 52.684c0 0 550.259 0 550.259 0zM909.014 795.257h-148.436v148.436h-86.135v-148.436h-148.436v-86.135h148.436v-148.436h86.135v148.436h148.436z" />
<glyph unicode="&#xe943;" glyph-name="email" d="M512 456.192c-20.48 0-43.008 6.144-59.392 20.48l-428.032 362.496c-10.24 10.24-12.288 26.624-2.048 36.864 10.24 12.288 26.624 12.288 38.912 4.096l428.032-360.448c12.288-10.24 34.816-10.24 47.104 0l428.032 360.448c12.288 10.24 28.672 8.192 38.912-4.096s8.192-28.672-4.096-38.912l-428.032-360.448c-16.384-12.288-38.912-20.48-59.392-20.48zM923.648-10.752h-823.296c-55.296 0-100.352 45.056-100.352 100.352v716.8c0 55.296 45.056 100.352 100.352 100.352h823.296c55.296 0 100.352-45.056 100.352-100.352v-714.752c0-57.344-45.056-102.4-100.352-102.4zM100.352 851.456c-24.576 0-47.104-20.48-47.104-47.104v-714.752c0-24.576 20.48-47.104 47.104-47.104h823.296c24.576 0 47.104 20.48 47.104 47.104v716.8c0 24.576-20.48 47.104-47.104 47.104h-823.296z" />
<glyph unicode="&#xe944;" glyph-name="password-icon" d="M854.016-70.144h-716.8c-47.104 0-88.064 38.912-88.064 88.064v532.48c0 47.104 38.912 88.064 88.064 88.064h716.8c47.104 0 88.064-38.912 88.064-88.064v-532.48c0-49.152-38.912-88.064-88.064-88.064zM137.216 589.312c-22.528 0-40.96-18.432-40.96-40.96v-532.48c0-22.528 18.432-40.96 40.96-40.96h716.8c22.528 0 40.96 18.432 40.96 40.96v532.48c0 22.528-18.432 40.96-40.96 40.96h-716.8zM495.616 298.496c-12.288 0-22.528 10.24-22.528 22.528v106.496c0 12.288 10.24 22.528 22.528 22.528s22.528-10.24 22.528-22.528v-106.496c2.048-10.24-10.24-22.528-22.528-22.528zM495.616 128.512c-55.296 0-100.352 45.056-100.352 100.352s45.056 100.352 100.352 100.352c55.296 0 100.352-45.056 100.352-100.352s-45.056-100.352-100.352-100.352zM495.616 282.112c-28.672 0-53.248-24.576-53.248-53.248s24.576-53.248 53.248-53.248c28.672 0 53.248 24.576 53.248 53.248s-24.576 53.248-53.248 53.248zM743.424 613.888c-12.288 0-22.528 10.24-22.528 22.528v49.152c0 120.832-100.352 219.136-225.28 219.136-122.88 0-225.28-98.304-225.28-219.136v-49.152c0-12.288-10.24-22.528-22.528-22.528s-22.528 10.24-22.528 22.528v49.152c0 147.456 120.832 266.24 272.384 266.24s272.384-118.784 272.384-266.24v-49.152c-2.048-12.288-12.288-22.528-26.624-22.528z" />
<glyph unicode="&#xe945;" glyph-name="picked-by-courier" horiz-adv-x="924" d="M266.24 236.775c-12.846-117.655-74.819-218.694-164.663-283.497l-1.185-0.813c-11.056-9.993-25.782-16.108-41.937-16.108-6.677 0-13.109 1.045-19.144 2.979l0.444-0.123c-19.606 5.611-34.326 21.808-37.704 41.856l-0.043 0.309c-0.811 3.605-1.276 7.746-1.276 11.995 0 18.481 8.792 34.909 22.421 45.329l0.138 0.101c21.972 18.302 41.77 37.21 60.224 57.368l0.413 0.458c39.431 41.461 63.688 97.675 63.688 159.554 0 23.873-3.61 46.902-10.315 68.573l0.437-1.642c-3.078 11.773-8.494 22.008-15.757 30.637l0.096-0.117c-16.001 17.985-25.777 41.816-25.777 67.931 0 1.389 0.028 2.772 0.082 4.147l-0.006-0.198c0.046 89.974 23.719 174.409 65.151 247.45l-1.301-2.493c17.335 37.27 54.462 62.646 97.515 62.646 0.165 0 0.329 0 0.493-0.001h-0.025c1.698 0.17 3.67 0.267 5.665 0.267 33.267 0 60.235-26.968 60.235-60.235 0-0.8-0.016-1.596-0.046-2.389l0.004 0.114c0.005-0.488 0.007-1.064 0.007-1.641 0-18.882-2.791-37.112-7.982-54.3l0.345 1.328c-7.469-24.667-15.789-45.559-25.618-65.577l1.123 2.53c-3.843 12.010-6.058 25.825-6.058 40.157s2.215 28.147 6.321 41.121l-0.263-0.964c1.579 4.399 2.492 9.475 2.492 14.763 0 16.917-9.34 31.652-23.144 39.331l-0.229 0.117c-6.248 3.543-13.723 5.631-21.686 5.631-12.411 0-23.636-5.072-31.718-13.256l-0.005-0.005c-5.524-5.607-9.793-12.466-12.342-20.111l-0.106-0.369c-7.458-20.942-11.767-45.098-11.767-70.261 0-56.286 21.565-107.535 56.883-145.937l-0.14 0.154c6.612-5.977 10.749-14.586 10.749-24.161 0-2.394-0.259-4.728-0.75-6.975l0.039 0.215c-0.293-1.421-0.46-3.054-0.46-4.727 0-6.202 2.305-11.866 6.106-16.182l-0.023 0.027c82.475-61.054 144.928-144.898 178.439-242.214l1.062-3.546c13.059-35.052 26.843-80.663 38.23-127.215l1.927-9.319c1.809-5.317 2.853-11.442 2.853-17.811 0-26.515-18.097-48.803-42.613-55.187l-0.396-0.088c-4.087-1.032-8.778-1.624-13.608-1.624-29.679 0-54.136 22.359-57.445 51.151l-0.025 0.267c-16.348 83.889-46.812 158.408-89.087 224.658l1.546-2.59c-4.819 7.228-10.441 14.055-15.26 21.283zM501.961 874.064c-23.358-2.834-50.403-4.451-77.826-4.451-39.599 0-78.411 3.372-116.163 9.843l4.047-0.574 53.007-14.055 54.212-12.85c-0.806-48.928-37.354-89.079-84.625-95.517l-0.508-0.057c-5.589-1.082-12.017-1.701-18.589-1.701-56.554 0-102.4 45.846-102.4 102.4 0 39.597 22.475 73.945 55.365 90.982l0.571 0.269c13.912 7.331 30.402 11.634 47.897 11.634 34.212 0 64.58-16.455 83.623-41.882l0.195-0.272c4.733-5.159 10.874-8.956 17.813-10.785l0.257-0.058c21.283-6.024 42.968-10.039 64.251-16.063 7.216-2.859 13.433-6.232 19.175-10.239l-0.302 0.199zM248.571 686.532c0.095 0.001 0.207 0.001 0.319 0.001 20.182 0 36.543-16.361 36.543-36.543 0-3.723-0.557-7.317-1.592-10.701l0.068 0.259c-4.732-14.251-7.462-30.658-7.462-47.702 0-13.435 1.696-26.474 4.886-38.915l-0.235 1.083c11.002-37.438 35.783-67.84 68.338-85.963l0.732-0.374c14.131-8.138 31.166-16.486 48.751-23.776l3.052-1.121c15.129-5.15 25.818-19.233 25.818-35.813 0-4.884-0.928-9.552-2.616-13.836l0.089 0.256c-5.665-13.579-18.834-22.949-34.191-22.949-5.509 0-10.736 1.206-15.431 3.367l0.23-0.095c-78.028 22.785-138.888 81.264-164.531 156.093l-0.513 1.723c-5.946 18.739-9.373 40.292-9.373 62.645s3.427 43.905 9.783 64.161l-0.41-1.516c4.661 16.927 19.703 29.238 37.694 29.715l0.053 0.001zM778.24 303.435l-138.943-89.55-90.353 137.738 138.943 89.55zM880.64 146.824c-35.74-22.889-69.873-45.377-104.408-67.062-2.165-0.648-4.653-1.021-7.228-1.021s-5.063 0.373-7.413 1.068l0.185-0.047c-2.811 0-5.622 3.213-8.031 2.811-31.322 0-43.369 21.283-56.621 42.968s-29.716 45.779-45.377 69.873l138.943 89.55zM694.312 80.565l-23.291-14.858-249.374 382.695c16.866 16.464 22.889 16.464 37.747-6.425l228.493-348.963zM795.909 4.267c0.013-0.492 0.020-1.070 0.020-1.651 0-36.816-29.845-66.66-66.66-66.66-0.855 0-1.705 0.016-2.552 0.048l0.122-0.004c-0.121-0.001-0.263-0.001-0.406-0.001-37.481 0-67.865 30.384-67.865 67.865 0 0.283 0.002 0.565 0.005 0.847v-0.043c0.671 37.407 31.153 67.474 68.658 67.474 0.427 0 0.854-0.004 1.279-0.012l-0.064 0.001c0 0 0.001 0 0.001 0 37.259 0 67.464-30.204 67.464-67.464 0-0.141 0-0.282-0.001-0.423v0.022zM759.366 4.267c-0.223 16.986-13.934 30.697-30.9 30.921h-0.021c-0.48 0.027-1.041 0.042-1.606 0.042-17.077 0-30.921-13.844-30.921-30.921 0-0.015 0-0.029 0-0.044v0.002c0.209-17.157 13.835-31.064 30.86-31.722l0.060-0.002c17.964 0 32.527 14.563 32.527 32.527v0zM803.94 37.597l-15.661 22.889c40.157 24.496 75.495 49.393 113.644 72.684 4.819 2.811 14.055 0 21.283-2.008-2.008-6.827 0-16.866-6.425-20.078-36.543-25.299-74.29-48.991-112.841-73.487zM759.366 5.070c-0.449-17.615-14.835-31.724-32.517-31.724-0.003 0-0.007 0-0.010 0h0.001c-17.085 0.66-30.712 14.567-30.921 31.704v0.020c0 0.012 0 0.027 0 0.042 0 17.077 13.844 30.921 30.921 30.921 0.565 0 1.127-0.015 1.684-0.045l-0.078 0.003c16.986-0.223 30.697-13.934 30.921-30.9v-0.021z" />
<glyph unicode="&#xe947;" glyph-name="seller-confirmed" d="M1018.977 413.995l-60.281 95.831 35.937 107.423c1.041 3.061 1.641 6.587 1.641 10.253 0 12.054-6.493 22.591-16.172 28.305l-0.153 0.084-97.763 56.417-17.775 112.060c-2.418 15.133-15.017 26.673-30.451 27.433l-0.076 0.003-112.447 4.251-68.009 90.808c-5.921 7.642-15.101 12.513-25.418 12.513-4.792 0-9.339-1.051-13.422-2.935l0.199 0.082-102.786-48.302-101.627 48.688c-3.826 1.74-8.296 2.755-13.004 2.755-10.445 0-19.723-4.993-25.579-12.721l-0.058-0.080-68.782-90.808-112.833-4.251c-15.509-0.763-28.109-12.302-30.502-27.25l-0.024-0.185-17.775-112.060-97.763-56.417c-9.832-5.797-16.325-16.335-16.325-28.388 0-3.666 0.601-7.192 1.709-10.485l-0.068 0.232 35.937-107.423-60.281-95.831c-3.275-4.984-5.224-11.094-5.224-17.659 0-9.138 3.776-17.394 9.853-23.293l0.008-0.008 81.147-77.283-8.501-114.379c-0.080-0.857-0.126-1.854-0.126-2.861 0-14.666 9.727-27.060 23.081-31.084l0.23-0.059 108.196-31.3 44.051-104.332c4.897-11.834 16.353-20.008 29.717-20.008 2.339 0 4.62 0.25 6.817 0.726l-0.211-0.038 110.515 22.798 87.33-71.873c5.511-4.598 12.67-7.39 20.48-7.39s14.969 2.792 20.531 7.432l87.279 71.831 110.515-22.798c1.986-0.437 4.267-0.688 6.606-0.688 13.364 0 24.82 8.174 29.639 19.796l0.078 0.213 44.051 104.332 108.196 31.3c13.584 4.083 23.311 16.477 23.311 31.143 0 1.007-0.046 2.004-0.136 2.988l0.009-0.127-9.66 112.060 81.147 77.283c6.165 5.978 9.992 14.338 9.992 23.591 0 6.435-1.85 12.437-5.048 17.505l0.080-0.135zM745.395 568.562l-226.053-341.205c-7.38-12.003-20.021-20.155-34.63-21.244l-0.148-0.009c-15.185 0.486-28.783 6.9-38.63 16.991l-0.011 0.011-165.772 171.568c-5.305 5.428-8.578 12.862-8.578 21.060s3.273 15.632 8.584 21.065l-0.006-0.006 40.96 42.119c5.199 5.332 12.453 8.639 20.48 8.639s15.281-3.307 20.474-8.633l0.006-0.006 108.196-110.515 178.137 270.491c5.241 7.381 13.758 12.138 23.385 12.138 5.658 0 10.933-1.643 15.372-4.479l-0.115 0.069 47.915-33.232c8.643-5.4 14.308-14.862 14.308-25.647 0-6.455-2.029-12.436-5.484-17.34l0.064 0.095z" />
<glyph unicode="&#xe948;" glyph-name="in-store" d="M967.253 896h-910.080v-112.213h910.080zM1024 336.213v111.787l-56.747 279.893h-910.080l-57.173-279.893v-111.787h57.173v-335.787h568.747v335.787h227.413v-335.787h113.92v335.787zM512 112.213h-341.333v224h341.333z" />
<glyph unicode="&#xe949;" glyph-name="delivered" d="M992.815 306.967c-16.010 6.035-34.516 9.529-53.838 9.529-15.647 0-30.758-2.291-45.018-6.556l1.11 0.285-282.531-46.545c-4.711-1.619-8.482-4.936-10.657-9.203l-0.049-0.106c-86.575-129.396-224.349-36.771-223.884-34.909 15.575-5.122 33.501-8.075 52.118-8.075 44.707 0 85.434 17.035 116.047 44.968l-0.135-0.121c57.716 67.025-33.513 76.8-81.92 88.436-181.062 42.822-188.975 0-293.702-10.705l-160.582-21.876c-3.7-1.083-6.678-3.606-8.343-6.904l-0.035-0.077c-0.755-1.568-1.197-3.409-1.197-5.353s0.441-3.785 1.23-5.428l-0.033 0.076 6.516-15.36c16.291-38.633 32.582-96.349 49.338-135.913 1.217-2.575 3.14-4.648 5.52-6.016l0.066-0.035c2.86-1.375 6.206-2.222 9.738-2.326l0.036-0.001h114.036c6.051 0 259.724-142.429 381.673-93.091l379.811 164.771 46.545 20.945c16.157 7.391 27.23 23.32 27.462 41.861v0.030c-2.183 17.278-13.563 31.45-29.009 37.592l-0.315 0.11zM206.196 724.48h11.636v-264.844c1.254-19.545 17.413-34.923 37.164-34.923 0.353 0 0.704 0.005 1.054 0.015l-0.052-0.001h512c0.278-0.007 0.605-0.012 0.934-0.012 20.406 0 36.977 16.414 37.233 36.758v263.006h11.636c0.14-0.004 0.305-0.006 0.471-0.006 10.121 0 18.356 8.076 18.612 18.135v128.955c0 0.002 0 0.004 0 0.006 0 10.283-8.336 18.618-18.618 18.618-0.164 0-0.327-0.002-0.49-0.006h-611.583c-0.139 0.004-0.302 0.006-0.465 0.006-10.283 0-18.618-8.336-18.618-18.618 0-0.002 0-0.004 0-0.006v0-128.465c0-0.002 0-0.004 0-0.006 0-10.283 8.336-18.618 18.618-18.618 0.164 0 0.327 0.002 0.49 0.006h-0.024zM469.178 836.189h85.644c16.195 0 29.324-13.129 29.324-29.324s-13.129-29.324-29.324-29.324h-85.644c-16.195 0-29.324 13.129-29.324 29.324s13.129 29.324 29.324 29.324v0z" />
</font>
</defs>
</svg>
